<?xml version="1.0" encoding="utf-8"?>
<!-- Generator: Adobe Illustrator 19.2.1, SVG Export Plug-In . SVG Version: 6.00 Build 0)  -->
<svg version="1.1" id="Layer_1" xmlns="http://www.w3.org/2000/svg" xmlns:xlink="http://www.w3.org/1999/xlink" x="0px" y="0px"
	 viewBox="0 0 396.3 38.9" enable-background="new 0 0 396.3 38.9" xml:space="preserve">
<g>
	<path fill="#68BD45" d="M122,13.2v17.9h5.8V17.5l16.8,11.8c0.7,0.5,0.5,1.6-0.3,1.8L113,38.9c-1,0.2-1.8-0.7-1.5-1.7l8.6-24.3
		C120.4,11.8,122,12.1,122,13.2z"/>
	<path fill="#3174BA" d="M146.4,25.3V6.8h-5.8v13.6L123.9,8.6c-0.7-0.5-0.5-1.6,0.4-1.8L156.5,0c1-0.2,1.8,0.8,1.4,1.7l-9.6,24
		C147.9,26.7,146.4,26.4,146.4,25.3z"/>
	<polygon opacity="0.32" fill="#231F20" points="127.8,31.1 132.3,20.7 127.8,17.5 	"/>
	<polygon opacity="0.32" fill="#231F20" points="140.6,6.8 136,17.2 140.6,20.3 	"/>
	<path fill="#0454A0" d="M0,29.7V9.5h3.4v8.8h10V9.5h3.4v20.2h-3.4v-8.3h-10v8.3H0z"/>
	<path fill="#0454A0" d="M38.5,29.7h-3.8L26.5,9.5h3.8l6.2,15.1l6.2-15.1h3.8L38.5,29.7z"/>
	<path fill="#0454A0" d="M58.1,25.1l-2,4.6h-3.6l8.9-20.2H65l8.9,20.2h-3.6l-2-4.6H58.1z M66.9,22l-3.7-8.3L59.5,22H66.9z"/>
	<path fill="#0454A0" d="M91.7,26.6c1.2,0,2.2-0.2,3-0.6c0.8-0.4,1.7-1,2.7-1.9l2.2,2.3c-2.1,2.4-4.7,3.6-7.8,3.6
		c-3.1,0-5.6-1-7.6-2.9c-2-2-3-4.5-3-7.5s1-5.5,3.1-7.5c2.1-2,4.6-3,7.8-3c3.1,0,5.7,1.2,7.8,3.5l-2.2,2.4c-1-0.9-1.9-1.6-2.7-1.9
		c-0.9-0.4-1.9-0.6-3-0.6c-2,0-3.8,0.7-5.1,2s-2.1,3-2.1,5.1c0,2.1,0.7,3.8,2.1,5.1C88.2,25.9,89.8,26.6,91.7,26.6z"/>
	<g>
		<polygon fill="#0454A0" points="183.5,22.5 173.6,9.5 169.3,9.5 169.3,29.7 173.8,29.7 173.8,17 183.5,29.7 188,29.7 188,9.5 
			183.5,9.5 		"/>
		<path fill="#0454A0" d="M205.8,9.5l-8.7,20.2h4.8l1.9-4.4h8.5l1.9,4.4h4.8l-8.7-20.2H205.8z M205.5,21.4l2.5-5.9l2.5,5.9H205.5z"
			/>
		<polygon fill="#0454A0" points="234.7,22.4 229.6,9.5 224.7,9.5 232.8,29.7 236.6,29.7 244.7,9.5 239.9,9.5 		"/>
		<rect x="254.1" y="9.5" fill="#0454A0" width="4.5" height="20.2"/>
		<path fill="#0454A0" d="M304,9.5l-8.7,20.2h4.8l1.9-4.4h8.5l1.9,4.4h4.8l-8.7-20.2H304z M303.6,21.4l2.5-5.9l2.5,5.9H303.6z"/>
		<polygon fill="#0454A0" points="323,13.4 328.7,13.4 328.7,29.7 333.2,29.7 333.2,13.4 338.9,13.4 338.9,9.5 323,9.5 		"/>
		<path fill="#0454A0" d="M358.8,9c-3,0-5.5,1-7.5,3c-2,2-3.1,4.5-3.1,7.4c0,3,1,5.4,3.1,7.4c2,2,4.6,3,7.5,3c3,0,5.5-1,7.5-3
			c2-2,3.1-4.5,3.1-7.4c0-3-1-5.4-3.1-7.4C364.3,10,361.8,9,358.8,9z M363.1,24.1c-1.2,1.3-2.6,1.9-4.3,1.9c-1.7,0-3.1-0.6-4.3-1.9
			c-1.2-1.3-1.7-2.8-1.7-4.6c0-1.8,0.6-3.3,1.7-4.6c1.2-1.3,2.6-1.9,4.3-1.9c1.7,0,3.1,0.6,4.3,1.9c1.2,1.3,1.7,2.8,1.7,4.6
			C364.8,21.3,364.2,22.8,363.1,24.1z"/>
		<path fill="#0454A0" d="M391.1,22.5c2.6-0.9,3.8-3,3.8-6.3c0-2.4-0.7-4.1-2-5.1c-1.3-1.1-3.6-1.6-6.7-1.6h-7.7v20.2h4.5v-6.4h3.1
			l4.5,6.4h5.6L391.1,22.5z M389.6,18.6c-0.6,0.5-1.6,0.8-3.2,0.8h-3.3v-6h3.4c1.4,0,2.5,0.2,3,0.6c0.6,0.4,0.9,1.2,0.9,2.2
			C390.4,17.3,390.1,18.1,389.6,18.6z"/>
		<path fill="#0454A0" d="M279,19.4v4h3.9V25c-1,0.6-2.3,0.9-3.9,0.9c-1.6,0-2.9-0.6-4-1.7c-1.1-1.1-1.7-2.7-1.7-4.6
			c0-1.9,0.6-3.4,1.8-4.6c1.2-1.2,2.6-1.7,4.3-1.7c0.9,0,1.7,0.1,2.5,0.4c0.8,0.3,1.6,0.8,2.5,1.6l2.3-3.4C284.5,10,282,9,279.1,9
			c-2.9,0-5.4,1-7.4,3c-2.1,2-3.1,4.5-3.1,7.5c0,3,1,5.5,3,7.4c2,2,4.5,2.9,7.5,2.9c3.5,0,6.3-1.1,8.3-3.4v-7.2L279,19.4z"/>
	</g>
</g>
</svg>
