<?xml version="1.0" encoding="utf-8"?>
<!-- Generator: Adobe Illustrator 19.2.1, SVG Export Plug-In . SVG Version: 6.00 Build 0)  -->
<svg version="1.1" id="Layer_1" xmlns="http://www.w3.org/2000/svg" xmlns:xlink="http://www.w3.org/1999/xlink" x="0px" y="0px"
	 viewBox="0 0 46.7 38.9" enable-background="new 0 0 46.7 38.9" xml:space="preserve">
<path fill="#68BD45" d="M10.6,13.2v17.9h5.8V17.5l16.8,11.8c0.7,0.5,0.5,1.6-0.3,1.8L1.6,38.9c-1,0.2-1.8-0.7-1.5-1.7l8.6-24.3
	C9,11.8,10.6,12.1,10.6,13.2z"/>
<path fill="#3174BA" d="M35,25.3V6.8h-5.8v13.6L12.5,8.6C11.8,8.1,12,7,12.9,6.8L45.1,0c1-0.2,1.8,0.8,1.4,1.7l-9.6,24
	C36.6,26.7,35,26.4,35,25.3z"/>
<polygon opacity="0.32" fill="#231F20" points="16.4,31.1 21,20.7 16.4,17.5 "/>
<polygon opacity="0.32" fill="#231F20" points="29.2,6.8 24.7,17.2 29.2,20.3 "/>
</svg>
